<svg xmlns="http://www.w3.org/2000/svg" width="108" height="24" viewBox="0 0 108 24">
  <title>Airdraft</title>
  <!-- Generated by scripts/render-sidebar-wordmark.swift. Lettering is outlined SF Pro Medium, 18 pt. -->
  <g fill="none" stroke="#000" stroke-width="1.9752" stroke-linecap="round" stroke-linejoin="round">
    <rect x="0.9876" y="2.9876" width="38.9039" height="18.0248" rx="9.0124"/>
    <path d="M10.5495 11.1085 V12.8915 M14.2857 9.5425 V14.4575 M18.022 7.7678 V16.2322 M21.7582 9.2294 V14.7706 M25.4945 10.4821 V13.5179 M30.3297 7.2733 V16.7267"/>
  </g>
  <path fill="#000" d="M52.0367 18.8797 Q51.1315 18.8797 50.4169 18.5312 Q49.7023 18.1826 49.2907 17.5422 Q48.8791 16.9018 48.8791 16.0359 L48.8791 16.0183 Q48.8791 15.1669 49.2943 14.5579 Q49.7094 13.9489 50.5058 13.6015 Q51.3022 13.2542 52.4375 13.1893 L55.9598 12.9772 L55.9598 14.324 L52.6943 14.533 Q51.7144 14.5893 51.251 14.9462 Q50.7876 15.3031 50.7876 15.941 L50.7876 15.9586 Q50.7876 16.6142 51.2863 16.9827 Q51.785 17.3512 52.5532 17.3512 Q53.264 17.3512 53.8185 17.0671 Q54.373 16.783 54.6916 16.2948 Q55.0102 15.8067 55.0102 15.1921 L55.0102 12.2018 Q55.0102 11.4145 54.5217 10.9965 Q54.0332 10.5784 53.0733 10.5784 Q52.2776 10.5784 51.7733 10.86 Q51.2689 11.1416 51.0981 11.6524 L51.0874 11.6843 L49.2506 11.6843 L49.2594 11.6187 Q49.3725 10.8324 49.8839 10.2453 Q50.3952 9.6582 51.2316 9.3296 Q52.068 9.0009 53.1551 9.0009 Q54.3586 9.0009 55.1961 9.3827 Q56.0337 9.7645 56.4706 10.4803 Q56.9075 11.1961 56.9075 12.1948 L56.9075 18.7174 L55.0102 18.7174 L55.0102 17.3588 L54.8679 17.3588 Q54.5906 17.8394 54.1695 18.1816 Q53.7484 18.5238 53.2112 18.7017 Q52.6741 18.8797 52.0367 18.8797 Z M59.1517 18.7174 L59.1517 9.1825 L61.0614 9.1825 L61.0614 18.7174 Z M60.1135 7.4928 Q59.6261 7.4928 59.2727 7.1434 Q58.9194 6.7939 58.9194 6.307 Q58.9194 5.8113 59.2727 5.4655 Q59.6261 5.1196 60.1135 5.1196 Q60.6096 5.1196 60.9586 5.4655 Q61.3075 5.8113 61.3075 6.307 Q61.3075 6.7939 60.9586 7.1434 Q60.6096 7.4928 60.1135 7.4928 Z M63.3578 18.7174 L63.3578 9.1825 L65.2673 9.1825 L65.2673 10.6321 L65.4096 10.6321 Q65.6659 9.8664 66.306 9.4429 Q66.9462 9.0195 67.8904 9.0195 Q68.1249 9.0195 68.3514 9.0454 Q68.5779 9.0713 68.718 9.1031 L68.718 10.8645 Q68.4694 10.8112 68.2203 10.7834 Q67.9712 10.7556 67.6982 10.7556 Q66.9745 10.7556 66.4272 11.0357 Q65.8799 11.3158 65.5736 11.8237 Q65.2673 12.3317 65.2673 13.0228 L65.2673 18.7174 Z M73.2976 18.8804 Q72.1001 18.8804 71.2094 18.2764 Q70.3188 17.6724 69.8319 16.5652 Q69.3451 15.4579 69.3451 13.9584 L69.3451 13.9412 Q69.3451 12.4317 69.8298 11.3279 Q70.3145 10.2241 71.2008 9.6218 Q72.087 9.0195 73.2967 9.0195 Q73.9521 9.0195 74.5239 9.2262 Q75.0958 9.433 75.5365 9.8062 Q75.9773 10.1795 76.2283 10.6986 L76.3706 10.6986 L76.3706 5.457 L78.2801 5.457 L78.2801 18.7174 L76.3706 18.7174 L76.3706 17.2077 L76.2283 17.2077 Q75.953 17.7329 75.5217 18.1055 Q75.0905 18.4782 74.5284 18.6793 Q73.9662 18.8804 73.2976 18.8804 Z M73.8391 17.2433 Q74.6308 17.2433 75.2062 16.8452 Q75.7816 16.4471 76.0915 15.7093 Q76.4013 14.9715 76.4013 13.9599 L76.4013 13.9427 Q76.4013 12.9228 76.0905 12.1886 Q75.7797 11.4543 75.2044 11.0555 Q74.6292 10.6566 73.8391 10.6566 Q73.0491 10.6566 72.4767 11.0525 Q71.9044 11.4484 71.5987 12.1824 Q71.293 12.9165 71.293 13.9412 L71.293 13.9584 Q71.293 14.9776 71.5986 15.7154 Q71.9042 16.4532 72.4759 16.8483 Q73.0475 17.2433 73.8391 17.2433 Z M80.6323 18.7174 L80.6323 9.1825 L82.5419 9.1825 L82.5419 10.6321 L82.6841 10.6321 Q82.9404 9.8664 83.5805 9.4429 Q84.2207 9.0195 85.165 9.0195 Q85.3994 9.0195 85.6259 9.0454 Q85.8525 9.0713 85.9925 9.1031 L85.9925 10.8645 Q85.744 10.8112 85.4948 10.7834 Q85.2457 10.7556 84.9727 10.7556 Q84.249 10.7556 83.7017 11.0357 Q83.1545 11.3158 82.8482 11.8237 Q82.5419 12.3317 82.5419 13.0228 L82.5419 18.7174 Z M89.896 18.8797 Q88.9907 18.8797 88.2761 18.5312 Q87.5615 18.1826 87.1499 17.5422 Q86.7384 16.9018 86.7384 16.0359 L86.7384 16.0183 Q86.7384 15.1669 87.1535 14.5579 Q87.5687 13.9489 88.365 13.6015 Q89.1614 13.2542 90.2967 13.1893 L93.8191 12.9772 L93.8191 14.324 L90.5535 14.533 Q89.5737 14.5893 89.1102 14.9462 Q88.6468 15.3031 88.6468 15.941 L88.6468 15.9586 Q88.6468 16.6142 89.1455 16.9827 Q89.6443 17.3512 90.4125 17.3512 Q91.1233 17.3512 91.6778 17.0671 Q92.2322 16.783 92.5508 16.2948 Q92.8694 15.8067 92.8694 15.1921 L92.8694 12.2018 Q92.8694 11.4145 92.3809 10.9965 Q91.8925 10.5784 90.9325 10.5784 Q90.1369 10.5784 89.6325 10.86 Q89.1282 11.1416 88.9573 11.6524 L88.9466 11.6843 L87.1098 11.6843 L87.1186 11.6187 Q87.2318 10.8324 87.7431 10.2453 Q88.2545 9.6582 89.0909 9.3296 Q89.9273 9.0009 91.0144 9.0009 Q92.2178 9.0009 93.0554 9.3827 Q93.8929 9.7645 94.3299 10.4803 Q94.7668 11.1961 94.7668 12.1948 L94.7668 18.7174 L92.8694 18.7174 L92.8694 17.3588 L92.7272 17.3588 Q92.4499 17.8394 92.0288 18.1816 Q91.6076 18.5238 91.0705 18.7017 Q90.5333 18.8797 89.896 18.8797 Z M97.6481 18.7174 L97.6481 10.6931 L96.0914 10.6931 L96.0914 9.1825 L97.6481 9.1825 L97.6481 8.1847 Q97.6481 7.2317 97.9699 6.6061 Q98.2917 5.9804 98.9486 5.6718 Q99.6054 5.3632 100.5978 5.3632 Q100.9195 5.3632 101.1973 5.3868 Q101.4752 5.4103 101.724 5.4537 L101.724 6.8546 Q101.5912 6.8302 101.4026 6.8198 Q101.214 6.8094 100.996 6.8094 Q100.2131 6.8094 99.8754 7.1801 Q99.5377 7.5507 99.5377 8.2746 L99.5377 9.1825 L101.6416 9.1825 L101.6416 10.6931 L99.5576 10.6931 L99.5576 18.7174 Z M106.9316 18.7804 Q105.3705 18.7804 104.6735 18.1802 Q103.9764 17.58 103.9764 16.2066 L103.9764 10.6931 L102.4913 10.6931 L102.4913 9.1825 L103.9764 9.1825 L103.9764 6.7817 L105.9291 6.7817 L105.9291 9.1825 L107.9615 9.1825 L107.9615 10.6931 L105.9291 10.6931 L105.9291 15.7603 Q105.9291 16.5247 106.2381 16.863 Q106.5472 17.2014 107.2485 17.2014 Q107.4638 17.2014 107.6143 17.1917 Q107.7647 17.1819 107.9615 17.1646 L107.9615 18.6855 Q107.7381 18.7233 107.4759 18.7519 Q107.2138 18.7804 106.9316 18.7804 Z"/>
</svg>
